<svg width="1080" height="1080" viewBox="0 0 1080 1080" fill="none" xmlns="http://www.w3.org/2000/svg">
<path fill-rule="evenodd" clip-rule="evenodd" d="M786.123 77.6179C693.723 120.538 610.947 126.106 549 126.106C487.059 126.106 404.277 120.538 311.871 77.6179L150.776 229.148C158.361 248.39 200.766 358.015 208.276 421.346L213.614 471.577C220.662 541.045 230.323 636.175 246.534 682.378L249.581 691.18C270.926 753.213 320.835 898.221 549 1020.38C777.176 898.221 827.08 753.213 848.419 691.18L851.476 682.356C867.677 636.175 877.332 541.045 884.386 471.556C884.386 471.556 889.729 421.346 889.729 421.292C897.239 358.015 939.644 248.396 947.218 229.154L786.123 77.6179Z" fill="black"/>
<path fill-rule="evenodd" clip-rule="evenodd" d="M784.385 88.1426C692.5 129.555 610.486 134.973 549 134.973C487.515 134.973 405.505 129.555 313.62 88.1426L161.215 231.498C173.011 261.914 209.998 360.627 217.095 420.407L222.433 470.681C229.444 539.698 239.041 634.233 254.913 679.47L257.966 688.284C278.811 748.874 327.476 890.239 549.006 1010.29C770.54 890.239 819.205 748.874 840.056 688.273L843.114 679.422C858.965 634.233 868.562 539.693 875.584 470.622L880.937 420.246C888.008 360.611 924.994 261.914 936.791 231.498L784.385 88.1426V88.1426Z" fill="white"/>
<path fill-rule="evenodd" clip-rule="evenodd" d="M764.865 402.791L880.122 219.09L777.642 123.075C701.024 154.354 631.771 162.492 575.457 164.187L526.014 243.241C591.281 236.669 716.961 266.532 764.865 402.791V402.791ZM326.307 562.352L275.088 645.434C289.368 703.454 327.165 818.717 447.561 910.8L574.175 708.593C454.712 724.455 361.18 650.959 326.307 562.352V562.352Z" fill="#ED1B2E"/>
<path fill-rule="evenodd" clip-rule="evenodd" d="M469.592 924.967C492.637 942.015 518.633 958.977 547.997 975.596C765.798 852.324 796.289 713.593 811.062 678.108C829.263 634.4 842.159 502.776 844.712 466.905C852.131 362.816 887.133 267.037 899.498 236.997L771.833 440.92C792.673 568.263 707.714 668.495 611.07 698.943L469.592 924.967V924.967ZM315.83 529.984C311.747 512.548 309.688 494.699 309.693 476.791C309.693 366.072 387.073 273.479 490.69 249.994L544.333 164.439C484.339 164.23 406.337 158.715 318.722 122.946L195.305 239.153C195.305 239.153 237.216 343.065 245.89 416.164L251.287 466.899C255.428 507.7 260.911 561.681 268.152 606.269L315.83 529.984Z" fill="black"/>
<path fill-rule="evenodd" clip-rule="evenodd" d="M304.217 529.061C300.441 511.892 298.533 494.365 298.525 476.786C298.525 361.7 378.308 265.304 485.557 239.721L526.39 173.451C470.397 172.158 399.771 164.89 321.087 133.755L206.737 241.406C206.737 241.406 246.797 341.369 255.52 414.871L260.927 465.719C264.247 498.468 268.453 539.827 273.705 577.795L304.217 529.061ZM483.089 922.671C504.088 937.726 525.844 951.697 548.271 964.529C761.748 842.368 794.164 694.415 802.034 674.637C817.751 635.172 829.88 530.96 835.614 465.725C837.261 447.035 843.725 367.016 865.654 308.218L783.538 442.143C801.278 576.519 716.618 676.504 617.159 708.792L483.089 922.671V922.671Z" fill="white"/>
<path fill-rule="evenodd" clip-rule="evenodd" d="M747.748 443.114C745.806 365.305 652.864 300.751 652.864 300.751V652.761C668.2 644.452 687.753 625.763 687.753 625.763V568.934C754.115 522.275 747.748 443.114 747.748 443.114V443.114ZM687.753 510.157V392.684C712.027 412.618 712.3 457.399 712.3 457.399C710.187 494.992 687.753 510.157 687.753 510.157ZM504.348 638.262C431.903 620.651 378.094 555.389 378.094 477.521C378.094 399.653 431.898 334.38 504.348 316.774V275.002C409.695 293.305 338.205 377.514 338.205 477.515C338.205 577.511 409.695 660.776 504.348 679.079V638.262Z" fill="black"/>
<path fill-rule="evenodd" clip-rule="evenodd" d="M397.646 477.516C397.646 523.423 418.862 564.353 452.014 591.088V540.406C437.895 525.451 432.429 510.801 430.154 490.148H471.127V604.145C481.581 610.139 492.74 614.81 504.348 618.049V336.976C442.814 354.11 397.646 410.521 397.646 477.516V477.516Z" fill="black"/>
<path fill-rule="evenodd" clip-rule="evenodd" d="M471.127 456.09V389.348C450.512 406.273 436.484 429.891 431.484 456.09H471.127V456.09Z" fill="white"/>
<path fill-rule="evenodd" clip-rule="evenodd" d="M592.129 522.13C592.129 522.13 618.302 511.289 623.162 475.391C628.022 439.499 628.022 397.239 628.022 396.118C628.022 395.002 626.273 336.788 626.273 336.788C626.273 336.788 628.515 277.749 579.909 272.519C538.948 268.109 526.808 271.398 526.808 271.398V683.295C526.808 683.295 550.411 684.953 562.003 682.711V552.213C562.003 552.213 584.506 605.658 595.101 677.679C595.101 677.679 624.594 669.831 634.137 662.938C634.142 662.932 624.787 589.195 592.129 522.13V522.13Z" fill="black"/>
<path fill-rule="evenodd" clip-rule="evenodd" d="M590.262 441.612C590.262 449.101 590.284 462.683 584.302 467.913C578.321 473.149 575.001 477.762 563.409 474.774V319.848C563.409 319.848 578.697 320.213 584.678 325.824C590.659 331.435 589.919 338.167 590.284 343.397C590.664 348.622 590.262 432.477 590.262 441.612Z" fill="white"/>
</svg>
