<?xml version="1.0" encoding="utf-8"?>
<!-- Generator: Adobe Illustrator 26.0.3, SVG Export Plug-In . SVG Version: 6.00 Build 0)  -->
<svg version="1.1" id="Capa_1" xmlns="http://www.w3.org/2000/svg" xmlns:xlink="http://www.w3.org/1999/xlink" x="0px" y="0px"
	 viewBox="0 0 1080 1080" style="enable-background:new 0 0 1080 1080;" xml:space="preserve">
<style type="text/css">
	.st0{fill:#FFFFFF;}
	.st1{fill-rule:evenodd;clip-rule:evenodd;fill:#E2211C;}
	.st2{fill-rule:evenodd;clip-rule:evenodd;}
	.st3{fill-rule:evenodd;clip-rule:evenodd;fill:#FFFFFF;}
</style>
<g>
	<g>
		<path d="M307.4,397.2l-0.1-0.7l-0.1-0.7c-5.2-43.7-20.9-96.3-33.6-134.5c-1.7-5.1-3.4-10.1-5.1-15l58.3-54.9
			c84.1,27.1,158.3,31,213.1,31c54.8,0,128.9-3.9,213.1-31l58.4,54.9c-1.7,4.9-3.4,9.9-5.1,15c-12.7,38.2-28.4,90.8-33.6,134.5
			l-0.8,6.4v0.7l-0.2,2.1l-1.8,17.3l-1.8,17.3l-0.6,5.7l-0.2,1.6l0,0.4l0,0.1l0,0l0,0v0l0,0.3l0,0.3c-3.6,35.2-7.6,74.5-12.6,110.5
			c-5.3,38.3-10.7,64-14.8,75.7l-0.1,0.2l-0.1,0.2l-3.1,8.9l0,0.1l0,0.1c-9.8,28.5-23.3,67.5-56.9,113.1
			C652.2,794,609.4,838.3,540,882.7c-69.4-44.3-112.2-88.7-139.6-125.8c-33.6-45.6-47.2-84.6-57-113.1l0-0.1l0-0.1l-3.1-8.8
			l-0.1-0.2l-0.1-0.2c-4.1-11.8-9.5-37.5-14.8-75.8c-5-36-9-75.2-12.6-110.4l0-0.3l0-0.3L307.4,397.2z"/>
		<path d="M540,1012.9l-59.1-37.8C410.7,930.3,353.9,878.8,312,822c-43.8-59.5-61.7-111.4-72.4-142.5l-3.3-9.6
			c-3.2-9.4-10.9-33.3-19.7-96.2c-5.3-38.4-9.6-80.4-13-114.3l0-0.2l-5.3-50.4c-3.3-27.3-13-65.2-28.8-113c-1.6-4.8-3.1-9.4-4.7-14
			l-22.9-67L298.9,67.1L360.6,87c70.6,22.8,133,25.7,179.4,25.7c46.4,0,108.7-2.9,179.4-25.7l61.7-19.9l157.1,147.8l-22.9,67
			c-1.6,4.6-3.1,9.3-4.7,14C894.7,344,885,382,881.8,408.8l-5.4,51c-3.6,35.5-7.7,75.7-13,113.9c-9.2,66.4-17.3,89.4-19.9,96.9
			l-3.2,9.3c-10.8,31.3-28.7,83-72.2,142.1c-41.8,56.8-98.7,108.3-168.9,153.2L540,1012.9z M447.8,609.7c8.1,23.6,17.6,50.4,41,82.1
			c13.8,18.8,31,37.1,51.2,54.6c20.2-17.6,37.4-35.8,51.2-54.6c23.9-32.4,33.3-59.7,41.5-83.7l3.3-9.5c0.6-2.1,4.5-16.7,9.9-55.2
			c4.8-34.3,8.7-72.6,12.1-106.4l5.8-54.1c2.2-18.4,5.8-38.4,10.9-60.5c-53.5,8.4-99.7,9.7-134.7,9.7c-35,0-81.2-1.4-134.7-9.7
			c5.1,22,8.7,42.1,10.9,60.5l0.2,2.1l-109.1,12.2l109.2-11.6L422,437c3.4,33.8,7.3,72.1,12.1,106.5c5.4,38.6,9.3,53.2,9.9,55.2
			L447.8,609.7z"/>
	</g>
	<g>
		<path class="st0" d="M540,125.4c61.4,0,143.4-5.4,235.4-46.3l149.2,140.3c-6.2,16.1-17.9,47.1-28.9,81.5
			C884,337,872.8,377,869.2,407.3l0,0l-5.4,50.5l0,0l0,0.2c-3.5,34.6-7.7,75.5-12.9,113.3c-5.3,38-11.6,72.7-19.4,95l0,0l-3.1,8.9v0
			c-10.4,30.3-27.7,80.5-70,138.1c-42,57.3-108.8,122.1-218.4,181.8c-109.6-59.7-176.4-124.5-218.4-181.8
			c-42.2-57.6-59.5-107.8-70-138.1l0,0l-3.1-8.8l0,0c-7.8-22.3-14.2-57-19.4-95c-5.3-37.9-9.4-78.8-12.9-113.4l0-0.1l0,0l-5.4-50.4
			l0,0c-7-59-42.7-155.1-55.4-188L304.7,79.1C396.6,120,478.6,125.4,540,125.4z"/>
		<path d="M540,999.6l-1.8-1c-94.5-51.5-168.4-113-219.6-182.9c-42.6-58.1-60.1-108.8-70.5-139.1l-3.1-8.8
			c-7.1-20.1-13.5-51.4-19.6-95.8c-5.3-38-9.3-78.1-12.9-113.5l-5.4-50.5c-6.8-57.6-40.8-150-55.1-187.1l-0.9-2.4L303.9,74.6l2.3,1
			c91.5,40.7,173,45.9,233.8,45.9s142.3-5.2,233.8-45.9l2.3-1L929,218.4l-0.9,2.4c-6,15.6-17.8,46.9-28.9,81.3
			c-14.4,44.5-23.2,80-26.2,105.7l-5.4,51.2c-3.4,33.7-7.7,75.2-12.9,113c-6.2,44.4-12.6,75.7-19.6,95.7l-3.1,8.9
			c-10.4,30.3-27.9,81-70.5,139.1c-51.2,69.9-125.1,131.4-219.6,182.9L540,999.6z M159.9,220.4c14.9,38.8,47.9,129.3,54.7,186.6
			l5.4,50.5c3.6,35.5,7.7,75.6,12.9,113.4c6.1,43.8,12.4,74.7,19.3,94.3l3.1,8.9c10.3,29.9,27.5,79.9,69.4,137.1
			C374.9,879.7,447.3,940.2,540,991c92.7-50.8,165.1-111.2,215.4-179.7c41.9-57.2,59.2-107.2,69.4-137.1l3.1-8.9
			c6.9-19.6,13.2-50.4,19.3-94.3c5.3-37.9,9.5-79.7,12.9-113.2l5.4-50.8c3.1-26.2,12-62.2,26.6-107.2c10.6-32.9,21.8-63,28.1-79.3
			L774.6,83.6C682.7,123.9,601,129.1,540,129.1c-61,0-142.7-5.2-234.6-45.6L159.9,220.4z"/>
	</g>
	<g>
		<path class="st1" d="M756.5,390.2L872.1,206l-102.8-96.3C692.5,141,623,149.2,566.5,150.9L517,230.2
			C582.4,223.6,708.5,253.5,756.5,390.2L756.5,390.2z M316.6,550.3l-51.4,83.3c14.3,58.2,52.2,173.8,173,266.2l127-202.8
			C445.4,712.9,351.6,639.2,316.6,550.3L316.6,550.3z"/>
	</g>
	<g>
		<path class="st2" d="M739.4,430.7c-1.9-78-95.2-142.8-95.2-142.8V641c15.4-8.3,35-27.1,35-27.1v-57
			C745.8,510.1,739.4,430.7,739.4,430.7L739.4,430.7z M679.2,497.9V380.1c24.3,20,24.6,64.9,24.6,64.9
			C701.7,482.7,679.2,497.9,679.2,497.9z M495.2,626.4c-72.7-17.7-126.6-83.1-126.6-161.2c0-78.1,54-143.6,126.6-161.2V262
			c-94.9,18.4-166.7,102.8-166.7,203.1c0,100.3,71.7,183.8,166.7,202.2V626.4z"/>
	</g>
	<g>
		<path class="st2" d="M388.2,465.2c0,46,21.3,87.1,54.5,113.9v-50.8c-14.2-15-19.6-29.7-21.9-50.4h41.1v114.3
			c10.5,6,21.7,10.7,33.3,13.9V324.2C433.5,341.4,388.2,398,388.2,465.2L388.2,465.2z"/>
	</g>
	<g>
		<path class="st3" d="M461.9,443.7v-66.9c-20.7,17-34.7,40.7-39.8,66.9H461.9L461.9,443.7z"/>
	</g>
	<g>
		<path class="st2" d="M583.3,509.9c0,0,26.3-10.9,31.1-46.9c4.9-36,4.9-78.4,4.9-79.5c0-1.1-1.8-59.5-1.8-59.5s2.2-59.2-46.5-64.5
			c-41.1-4.4-53.3-1.1-53.3-1.1v413.2c0,0,23.7,1.7,35.3-0.6V540.1c0,0,22.6,53.6,33.2,125.9c0,0,29.6-7.9,39.2-14.8
			C625.4,651.2,616,577.2,583.3,509.9L583.3,509.9z"/>
	</g>
	<g>
		<path class="st3" d="M581.4,429.2c0,7.5,0,21.1-6,26.4c-6,5.3-9.3,9.9-21,6.9V307c0,0,15.3,0.4,21.3,6c6,5.6,5.3,12.4,5.6,17.6
			C581.8,335.9,581.4,420,581.4,429.2z"/>
	</g>
</g>
</svg>
